<?xml version="1.0" standalone="no"?>
<!DOCTYPE svg PUBLIC "-//W3C//DTD SVG 20010904//EN"
 "http://www.w3.org/TR/2001/REC-SVG-20010904/DTD/svg10.dtd">
<svg version="1.0" xmlns="http://www.w3.org/2000/svg"
 width="512.000000pt" height="512.000000pt" viewBox="0 0 512.000000 512.000000"
 preserveAspectRatio="xMidYMid meet">

<g transform="translate(0.000000,512.000000) scale(0.100000,-0.100000)"
fill="#000000" stroke="none">
<path d="M1855 3754 c-170 -26 -144 -27 80 -2 135 15 355 4 475 -23 52 -12
105 -22 117 -23 11 0 19 -5 16 -9 -2 -4 8 -5 24 -2 18 4 23 3 15 -2 -9 -7 3
-16 40 -34 28 -13 58 -23 65 -21 7 2 12 -3 11 -10 -2 -7 4 -12 13 -10 9 1 23
-6 30 -15 12 -16 12 -17 -1 -8 -9 6 0 -3 20 -20 19 -16 60 -52 90 -80 l55 -49
-45 49 -45 50 48 -45 c54 -50 59 -69 20 -71 l-28 -1 30 -7 c27 -6 24 -8 -25
-14 -85 -11 -238 -9 -220 3 12 8 10 10 -10 9 -14 -1 -36 -5 -50 -9 -23 -7 -23
-8 9 -9 63 -2 27 -8 -79 -14 -70 -4 -97 -3 -80 3 22 8 21 9 -10 5 -19 -2 -64
-7 -100 -11 -52 -6 -60 -9 -40 -16 17 -5 10 -6 -25 -4 -27 2 -97 -5 -155 -15
-58 -11 -123 -22 -145 -25 -22 -3 -44 -11 -50 -16 -7 -7 -2 -9 15 -5 14 4 85
14 158 24 83 10 127 20 120 25 -8 6 -1 7 18 3 17 -3 98 1 180 10 214 22 565
38 744 33 85 -2 135 -2 110 1 -40 5 -37 6 35 12 44 3 -14 4 -130 2 -115 -2
-207 -2 -205 1 3 3 36 6 73 7 79 3 80 0 -38 84 -84 60 -162 104 -150 86 3 -6
-10 -4 -29 6 -20 9 -34 18 -32 21 2 2 14 -1 25 -8 12 -6 21 -8 21 -5 0 18
-261 117 -307 117 -18 0 -33 4 -33 10 0 5 -8 8 -17 7 -10 -1 -25 1 -33 4 -70
28 -426 35 -575 11z m785 -78 c18 -7 29 -16 24 -19 -5 -3 -25 3 -44 14 -41 21
-27 25 20 5z m69 -25 c10 -7 7 -9 -12 -8 -14 1 -23 5 -20 10 6 9 15 9 32 -2z
m76 -81 c10 -11 16 -20 13 -20 -3 0 -13 9 -23 20 -10 11 -16 20 -13 20 3 0 13
-9 23 -20z m110 -18 c-3 -3 -11 0 -18 7 -9 10 -8 11 6 5 10 -3 15 -9 12 -12z
m115 -78 c0 -3 -13 4 -30 16 -16 12 -30 24 -30 26 0 3 14 -4 30 -16 17 -12 30
-24 30 -26z m31 -21 c13 -16 12 -17 -3 -4 -10 7 -18 15 -18 17 0 8 8 3 21 -13z
m-663 -80 c-10 -2 -26 -2 -35 0 -10 3 -2 5 17 5 19 0 27 -2 18 -5z"/>
<path d="M1698 3723 c6 -2 18 -2 25 0 6 3 1 5 -13 5 -14 0 -19 -2 -12 -5z"/>
<path d="M1658 3713 c7 -3 16 -2 19 1 4 3 -2 6 -13 5 -11 0 -14 -3 -6 -6z"/>
<path d="M1618 3703 c7 -3 16 -2 19 1 4 3 -2 6 -13 5 -11 0 -14 -3 -6 -6z"/>
<path d="M2770 3420 c-12 -8 -10 -10 10 -9 14 1 36 5 50 9 23 7 22 8 -10 9
-19 0 -42 -4 -50 -9z"/>
<path d="M2668 3413 c7 -3 16 -2 19 1 4 3 -2 6 -13 5 -11 0 -14 -3 -6 -6z"/>
<path d="M2713 3413 c9 -2 23 -2 30 0 6 3 -1 5 -18 5 -16 0 -22 -2 -12 -5z"/>
<path d="M3400 3410 c37 -12 82 -12 75 0 -3 6 -27 10 -53 9 -38 -1 -42 -2 -22
-9z"/>
<path d="M2475 3400 l-20 -9 20 0 c11 0 29 4 40 9 l20 9 -20 0 c-11 0 -29 -4
-40 -9z"/>
<path d="M3578 3403 c6 -2 12 -9 12 -15 0 -7 -21 -8 -60 -4 -33 3 -88 8 -122
11 -107 8 -1 -11 137 -25 251 -25 536 -87 708 -156 48 -19 92 -32 99 -28 6 4
8 3 4 -4 -3 -6 2 -13 13 -17 10 -3 56 -28 101 -55 45 -27 76 -42 68 -32 -8 10
-1 8 19 -6 18 -13 36 -29 40 -36 5 -8 44 -51 87 -96 43 -46 75 -77 71 -69 -5
8 -4 11 1 6 5 -5 9 -16 9 -25 0 -9 6 -16 13 -14 8 1 11 -2 8 -7 -3 -5 4 -30
15 -57 18 -39 21 -61 17 -130 -6 -120 -52 -209 -165 -321 -45 -46 -83 -81 -83
-78 0 3 -11 -2 -25 -11 -14 -9 -22 -21 -19 -26 4 -6 1 -8 -7 -6 -8 3 -37 -8
-65 -24 -28 -15 -98 -46 -155 -67 -57 -22 -105 -44 -107 -50 -2 -6 -11 -11
-20 -11 -15 0 -15 2 -2 10 16 11 -7 8 -80 -11 -19 -5 -47 -9 -62 -9 -25 0 -28
-4 -28 -31 l0 -31 47 7 c133 20 454 149 438 175 -4 7 0 10 11 8 12 -2 18 2 16
10 -1 7 5 12 15 10 11 -2 17 2 15 11 -2 9 3 11 13 7 12 -4 44 21 109 86 150
151 201 281 179 458 -11 84 -48 194 -62 186 -4 -3 -13 5 -21 17 -12 21 -12 21
5 7 17 -14 17 -14 7 7 -7 12 -17 25 -24 29 -7 5 -8 3 -3 -6 5 -9 4 -11 -4 -6
-6 4 -8 12 -5 18 8 13 -48 70 -121 123 -112 80 -265 145 -443 189 -144 35
-160 38 -142 26 12 -8 13 -10 1 -10 -8 0 -22 6 -30 14 -9 7 -70 21 -136 30
-182 25 -191 26 -177 17 10 -6 4 -10 -18 -15 -49 -9 -58 -7 -30 9 24 13 24 14
4 15 -12 0 -34 2 -50 4 -16 2 -23 1 -16 -1z m195 -30 c-7 -2 -19 -2 -25 0 -7
3 -2 5 12 5 14 0 19 -2 13 -5z m-50 -10 c-7 -2 -19 -2 -25 0 -7 3 -2 5 12 5
14 0 19 -2 13 -5z m130 0 c-7 -2 -19 -2 -25 0 -7 3 -2 5 12 5 14 0 19 -2 13
-5z m-70 -10 c-7 -2 -19 -2 -25 0 -7 3 -2 5 12 5 14 0 19 -2 13 -5z m140 0
c-7 -2 -19 -2 -25 0 -7 3 -2 5 12 5 14 0 19 -2 13 -5z m-86 -9 c-3 -3 -12 -4
-19 -1 -8 3 -5 6 6 6 11 1 17 -2 13 -5z m140 0 c-3 -3 -12 -4 -19 -1 -8 3 -5
6 6 6 11 1 17 -2 13 -5z m-90 -10 c-3 -3 -12 -4 -19 -1 -8 3 -5 6 6 6 11 1 17
-2 13 -5z m50 -10 c-3 -3 -12 -4 -19 -1 -8 3 -5 6 6 6 11 1 17 -2 13 -5z m190
-10 c-3 -3 -12 -4 -19 -1 -8 3 -5 6 6 6 11 1 17 -2 13 -5z m-70 -20 c-3 -3
-12 -4 -19 -1 -8 3 -5 6 6 6 11 1 17 -2 13 -5z m393 -84 c8 -5 11 -10 5 -10
-5 0 -17 5 -25 10 -8 5 -10 10 -5 10 6 0 17 -5 25 -10z m120 -66 c0 -2 -9 0
-20 6 -11 6 -20 13 -20 16 0 2 9 0 20 -6 11 -6 20 -13 20 -16z m-80 -30 c0 -2
-9 0 -20 6 -11 6 -20 13 -20 16 0 2 9 0 20 -6 11 -6 20 -13 20 -16z m141 -11
c13 -16 12 -17 -3 -4 -17 13 -22 21 -14 21 2 0 10 -8 17 -17z m59 -48 c19 -19
32 -35 29 -35 -3 0 -20 16 -39 35 -19 19 -32 35 -29 35 3 0 20 -16 39 -35z
m-40 -60 c19 -19 32 -35 29 -35 -3 0 -20 16 -39 35 -19 19 -32 35 -29 35 3 0
20 -16 39 -35z m70 -70 c13 -14 21 -25 18 -25 -2 0 -15 11 -28 25 -13 14 -21
25 -18 25 2 0 15 -11 28 -25z m109 -157 c0 -27 -2 -29 -8 -13 -5 11 -6 26 -4
33 8 21 13 13 12 -20z m8 -130 c-2 -18 -4 -4 -4 32 0 36 2 50 4 33 2 -18 2
-48 0 -65z m-10 -70 c-3 -8 -6 -5 -6 6 -1 11 2 17 5 13 3 -3 4 -12 1 -19z
m-37 -97 c-28 -56 -35 -52 -8 4 12 24 23 43 26 41 2 -2 -6 -22 -18 -45z m-40
-71 c-19 -36 -142 -160 -152 -154 -5 3 -4 11 3 20 6 7 14 12 18 10 3 -2 35 29
71 70 36 41 66 74 68 74 1 0 -2 -9 -8 -20z m-171 -177 c-6 -7 -15 -10 -20 -7
-13 8 -3 21 15 21 12 0 13 -4 5 -14z m-72 -36 c0 -7 -9 -13 -19 -13 -18 0 -18
1 -2 13 10 7 18 13 19 13 1 0 2 -6 2 -13z m-27 -32 c0 -2 -6 -5 -13 -8 -8 -3
-14 1 -14 8 0 7 6 11 14 8 7 -3 13 -6 13 -8z m-333 -111 c-3 -3 -12 -4 -19 -1
-8 3 -5 6 6 6 11 1 17 -2 13 -5z m-50 -10 c-3 -3 -12 -4 -19 -1 -8 3 -5 6 6 6
11 1 17 -2 13 -5z m-54 -11 c-7 -2 -19 -2 -25 0 -7 3 -2 5 12 5 14 0 19 -2 13
-5z m94 -9 c-3 -3 -12 -4 -19 -1 -8 3 -5 6 6 6 11 1 17 -2 13 -5z m-100 -20
c-3 -3 -12 -4 -19 -1 -8 3 -5 6 6 6 11 1 17 -2 13 -5z"/>
<path d="M1838 3304 c-3 -3 -77 -9 -164 -14 l-159 -8 160 3 c88 2 171 8 185
13 22 10 23 11 4 11 -11 1 -23 -2 -26 -5z"/>
<path d="M1428 3293 c7 -3 16 -2 19 1 4 3 -2 6 -13 5 -11 0 -14 -3 -6 -6z"/>
<path d="M1488 3283 c7 -3 16 -2 19 1 4 3 -2 6 -13 5 -11 0 -14 -3 -6 -6z"/>
<path d="M1037 3200 c-25 -20 -58 -96 -56 -134 0 -12 6 -1 14 23 21 66 49 91
105 91 119 0 183 -113 200 -355 7 -100 7 -100 8 -25 3 151 -29 293 -81 355
-52 64 -140 84 -190 45z m152 -18 c13 -10 31 -29 39 -42 11 -19 7 -17 -17 8
-17 18 -31 30 -31 28 0 -3 -16 2 -35 10 -49 20 -69 18 -106 -13 -30 -25 -31
-26 -20 -5 7 13 22 27 34 32 31 14 107 3 136 -18z"/>
<path d="M4560 3056 c0 -2 8 -10 18 -17 15 -13 16 -12 3 4 -13 16 -21 21 -21
13z"/>
<path d="M973 2995 c0 -27 2 -38 4 -22 2 15 2 37 0 50 -2 12 -4 0 -4 -28z"/>
<path d="M2603 3005 c-62 -17 -128 -49 -139 -67 -6 -9 -3 -9 9 1 9 7 17 11 17
8 0 -3 -15 -16 -32 -28 -29 -20 -31 -21 -18 -4 15 20 14 20 -8 1 -12 -11 -20
-26 -18 -33 3 -7 0 -15 -6 -19 -7 -5 -8 -2 -4 7 4 8 0 5 -9 -6 -80 -94 -106
-332 -66 -595 12 -78 16 -130 11 -140 -8 -13 -9 -13 -10 0 0 8 -12 22 -28 31
-15 8 -49 28 -76 44 -27 16 -46 23 -42 16 7 -10 4 -11 -13 -2 -11 7 -21 14
-21 17 0 3 5 2 10 -1 6 -3 10 -4 10 -1 0 3 -14 13 -31 22 -18 9 -28 11 -24 4
4 -7 -6 -5 -24 4 -17 9 -31 19 -31 22 0 2 9 0 20 -6 11 -6 20 -9 20 -6 0 12
-171 97 -181 90 -8 -4 -9 -3 -5 4 12 20 -400 217 -430 205 -11 -4 -15 -3 -11
5 7 9 -44 33 -123 57 -14 4 -28 13 -32 19 -5 7 -8 5 -8 -5 0 -18 104 -66 134
-61 11 1 17 -1 13 -4 -4 -4 62 -43 145 -87 152 -78 177 -95 156 -108 -7 -4 -4
-9 8 -12 14 -3 12 -5 -7 -6 -20 -1 -26 4 -25 16 1 15 -16 19 -119 29 -66 7
-142 15 -169 18 -44 5 -47 4 -30 -9 18 -13 17 -14 -13 -15 -35 0 -54 16 -26
23 10 2 -13 7 -50 12 -37 4 -71 5 -74 1 -4 -3 9 -6 28 -7 19 0 43 -4 54 -9 17
-7 16 -9 -10 -9 -16 -1 -68 3 -115 9 -47 5 -119 12 -160 15 -220 19 -252 22
-215 25 39 2 39 3 10 10 -40 10 -375 10 -450 0 -39 -6 18 -7 160 -5 121 2 209
0 195 -4 -29 -9 3 -14 220 -31 331 -27 888 -88 918 -100 17 -7 21 -7 17 1 -4
6 7 3 24 -5 17 -9 31 -19 31 -22 0 -2 -9 0 -20 6 -11 6 -20 8 -20 6 0 -3 14
-13 31 -22 18 -9 28 -11 24 -4 -6 9 -2 9 14 1 11 -7 21 -14 21 -17 0 -3 -4 -2
-10 1 -5 3 -10 4 -10 1 0 -3 10 -10 21 -17 16 -8 20 -8 14 1 -6 9 -2 9 14 1
11 -7 21 -14 21 -17 0 -3 -4 -2 -10 1 -5 3 -10 4 -10 1 0 -3 10 -10 21 -17 16
-8 20 -8 14 1 -6 9 -2 9 14 1 11 -7 21 -14 21 -17 0 -3 -4 -2 -10 1 -5 3 -10
4 -10 1 0 -10 106 -69 122 -68 10 0 21 -4 24 -10 4 -7 2 -8 -4 -4 -7 4 -12 5
-12 3 0 -10 56 -41 72 -40 10 1 21 -3 24 -9 4 -7 2 -8 -4 -4 -7 4 -12 5 -12 3
0 -2 19 -17 41 -32 23 -15 38 -22 35 -17 -3 6 -2 13 3 16 5 4 12 -4 14 -16 4
-21 4 -20 6 3 0 15 -5 29 -12 32 -19 7 -40 122 -26 144 8 14 8 40 0 103 -7 47
-12 114 -12 150 l-1 65 -8 -68 c-5 -38 -11 -71 -14 -75 -3 -3 -6 46 -5 109 1
78 4 104 9 81 12 -50 17 -48 25 10 4 29 13 72 20 95 7 24 9 40 4 37 -5 -3 -4
6 2 20 7 14 17 24 23 23 6 -1 11 6 11 15 0 10 7 23 15 30 12 11 12 10 0 -7 -8
-11 3 -4 23 14 40 38 51 56 15 25 l-23 -19 19 22 c10 13 22 20 27 17 5 -2 27
5 49 16 22 11 78 26 124 32 105 13 205 -5 313 -56 41 -20 71 -30 67 -24 -10
15 55 -24 69 -42 11 -13 10 -13 -8 0 -26 18 -15 8 70 -70 l70 -64 -60 64 -60
65 62 -59 c34 -33 60 -63 58 -66 -3 -4 15 -38 40 -75 47 -73 95 -191 120 -302
13 -60 14 -62 10 -18 -21 208 -128 438 -262 565 l-58 55 55 -60 c36 -40 29
-35 -22 16 -42 43 -95 87 -119 99 -57 29 -121 52 -114 40 10 -17 -7 -11 -20 7
-17 23 -199 29 -272 8z m175 -2 c-21 -2 -57 -2 -80 0 -24 2 -7 4 37 4 44 0 63
-2 43 -4z m-151 -9 c-3 -3 -12 -4 -19 -1 -8 3 -5 6 6 6 11 1 17 -2 13 -5z m30
-60 c-3 -3 -12 -4 -19 -1 -8 3 -5 6 6 6 11 1 17 -2 13 -5z m160 0 c-3 -3 -12
-4 -19 -1 -8 3 -5 6 6 6 11 1 17 -2 13 -5z m233 -20 c0 -2 -9 0 -20 6 -11 6
-20 13 -20 16 0 2 9 0 20 -6 11 -6 20 -13 20 -16z m-443 10 c-3 -3 -12 -4 -19
-1 -8 3 -5 6 6 6 11 1 17 -2 13 -5z m-67 -19 c0 -2 -10 -9 -22 -15 -22 -11
-22 -10 -4 4 21 17 26 19 26 11z m460 -30 c17 -9 30 -18 30 -21 0 -4 -59 23
-69 32 -10 9 13 3 39 -11z m-617 -60 c-9 -19 -18 -33 -21 -31 -4 5 26 66 33
66 3 0 -3 -16 -12 -35z m848 -72 c13 -16 12 -17 -3 -4 -17 13 -22 21 -14 21 2
0 10 -8 17 -17z m-894 -75 c-3 -7 -5 -2 -5 12 0 14 2 19 5 13 2 -7 2 -19 0
-25z m20 0 c-3 -8 -6 -5 -6 6 -1 11 2 17 5 13 3 -3 4 -12 1 -19z m938 -29 c17
-31 15 -46 -4 -35 -6 4 -7 14 -4 23 4 10 2 14 -5 9 -6 -3 -14 -1 -18 5 -5 8
-3 9 6 4 10 -6 12 -4 7 8 -11 28 2 19 18 -14z m-948 -21 c-3 -7 -5 -2 -5 12 0
14 2 19 5 13 2 -7 2 -19 0 -25z m982 -54 c16 -37 9 -39 -11 -3 -9 16 -14 29
-9 29 4 0 13 -12 20 -26z m-1751 -29 c34 -15 62 -32 62 -36 0 -8 -137 55 -150
69 -6 7 11 0 88 -33z m202 -95 c55 -28 100 -52 100 -55 0 -3 -27 8 -60 25 -34
17 -66 28 -72 24 -7 -5 -8 -2 -3 6 6 10 4 12 -9 7 -10 -4 -24 1 -35 12 -11 11
-22 17 -25 14 -3 -4 -6 -1 -6 5 0 17 1 17 110 -38z m-270 -30 c0 -5 -11 -10
-24 -10 -14 0 -28 5 -31 10 -4 6 7 10 24 10 17 0 31 -4 31 -10z m105 -10 c-3
-5 -19 -10 -36 -10 -16 0 -29 5 -29 10 0 6 16 10 36 10 21 0 33 -4 29 -10z
m80 -10 c-3 -5 -15 -10 -26 -10 -10 0 -19 5 -19 10 0 6 12 10 26 10 14 0 23
-4 19 -10z m646 -77 c-9 -16 -10 -15 -11 9 0 14 3 35 8 45 6 15 8 14 10 -9 2
-15 -1 -35 -7 -45z m-483 50 c-10 -2 -26 -2 -35 0 -10 3 -2 5 17 5 19 0 27 -2
18 -5z m172 -59 c0 -2 -13 2 -30 11 -16 9 -30 18 -30 21 0 2 14 -2 30 -11 17
-9 30 -18 30 -21z m327 -61 c-4 -17 -4 -17 -12 0 -4 9 -4 25 0 35 8 16 8 16
12 0 3 -10 3 -26 0 -35z m-197 -49 c0 -2 -9 0 -20 6 -11 6 -20 13 -20 16 0 2
9 0 20 -6 11 -6 20 -13 20 -16z m80 -10 c0 -2 -9 0 -20 6 -11 6 -20 13 -20 16
0 2 9 0 20 -6 11 -6 20 -13 20 -16z m-30 -20 c0 -2 -9 0 -20 6 -11 6 -20 13
-20 16 0 2 9 0 20 -6 11 -6 20 -13 20 -16z m80 -10 c0 -2 -9 0 -20 6 -11 6
-20 13 -20 16 0 2 9 0 20 -6 11 -6 20 -13 20 -16z m0 -40 c0 -2 -9 0 -20 6
-11 6 -20 13 -20 16 0 2 9 0 20 -6 11 -6 20 -13 20 -16z"/>
<path d="M3473 2783 c9 -2 25 -2 35 0 9 3 1 5 -18 5 -19 0 -27 -2 -17 -5z"/>
<path d="M3585 2775 c84 -19 162 -49 226 -88 30 -18 61 -31 67 -29 7 2 11 0
10 -5 -2 -4 29 -40 68 -78 l70 -70 -25 45 c-30 54 -92 133 -99 125 -3 -3 -11
4 -19 15 -7 10 -20 17 -27 14 -8 -3 -17 0 -22 7 -5 8 -3 10 7 5 8 -4 5 0 -5 8
-41 33 -130 58 -221 62 l-90 3 60 -14z m124 -11 c12 -11 -9 -10 -44 2 l-40 13
40 -6 c22 -3 42 -7 44 -9z m41 -8 c0 -2 -7 -7 -16 -10 -8 -3 -12 -2 -9 4 6 10
25 14 25 6z m20 -16 c-8 -5 -19 -10 -25 -10 -5 0 -3 5 5 10 8 5 20 10 25 10 6
0 3 -5 -5 -10z m40 -36 c0 -2 -9 0 -20 6 -11 6 -20 13 -20 16 0 2 9 0 20 -6
11 -6 20 -13 20 -16z m111 -51 c13 -16 12 -17 -3 -4 -17 13 -22 21 -14 21 2 0
10 -8 17 -17z m-10 -20 c13 -16 12 -17 -3 -4 -17 13 -22 21 -14 21 2 0 10 -8
17 -17z m54 -39 c9 -15 12 -23 6 -20 -11 7 -35 46 -28 46 3 0 12 -12 22 -26z"/>
<path d="M298 2473 c6 -2 18 -2 25 0 6 3 1 5 -13 5 -14 0 -19 -2 -12 -5z"/>
<path d="M880 2477 c3 -3 64 -11 135 -16 72 -6 150 -13 174 -17 25 -3 41 -2
37 4 -3 5 -52 12 -108 16 -57 3 -134 9 -173 13 -38 3 -68 3 -65 0z"/>
<path d="M628 2463 c12 -2 32 -2 45 0 12 2 2 4 -23 4 -25 0 -35 -2 -22 -4z"/>
<path d="M2366 2190 c16 -86 23 -105 17 -45 -3 33 -9 64 -14 70 -6 6 -7 -4 -3
-25z"/>
<path d="M3423 2185 c0 -22 2 -30 4 -17 2 12 2 30 0 40 -3 9 -5 -1 -4 -23z"/>
</g>
</svg>
