<?xml version="1.0" standalone="no"?>
<!DOCTYPE svg PUBLIC "-//W3C//DTD SVG 20010904//EN"
 "http://www.w3.org/TR/2001/REC-SVG-20010904/DTD/svg10.dtd">
<svg version="1.0" xmlns="http://www.w3.org/2000/svg"
 width="200.000000pt" height="200.000000pt" viewBox="0 0 200.000000 200.000000"
 preserveAspectRatio="xMidYMid meet">

<g transform="translate(0.000000,200.000000) scale(0.100000,-0.100000)" stroke="none">
<path d="M741 1590 c-51 -4 -108 -11 -126 -14 -44 -9 -120 -90 -174 -189 -24
-43 -46 -75 -49 -72 -4 3 -11 20 -17 38 -9 27 -15 32 -40 30 -56 -4 -75 -13
-81 -39 -9 -35 6 -46 68 -50 29 -1 53 -7 53 -12 0 -6 -49 -43 -110 -84 -128
-86 -136 -98 -154 -266 -20 -188 -13 -363 18 -410 11 -18 309 -92 385 -96 33
-2 157 -9 273 -16 178 -12 248 -12 425 0 117 7 242 15 278 17 36 2 132 20 214
41 190 48 189 47 195 204 4 137 -15 345 -37 407 -16 42 -28 53 -127 119 -61
40 -110 77 -110 83 0 6 24 12 53 13 62 4 77 15 68 50 -6 25 -14 29 -74 41 -30
6 -33 4 -50 -36 l-18 -42 -48 85 c-27 48 -70 107 -96 133 -42 41 -54 47 -111
56 -88 13 -493 19 -608 9z m612 -47 c41 -4 65 -12 79 -27 29 -31 77 -119 84
-154 6 -29 4 -31 -27 -37 -19 -3 -249 -5 -511 -3 -361 2 -480 6 -489 15 -10
10 -5 28 25 87 60 117 59 117 233 126 151 8 501 4 606 -7z m-933 -533 c50 -25
100 -68 100 -86 0 -6 -20 -17 -44 -24 -38 -10 -57 -10 -119 4 -41 9 -86 14
-99 11 -16 -4 -35 2 -58 17 -30 20 -35 30 -38 69 -2 25 2 57 7 72 l10 26 98
-33 c54 -18 118 -43 143 -56z m1415 8 c0 -59 -1 -63 -35 -85 -23 -16 -42 -22
-58 -18 -13 3 -58 -2 -99 -11 -62 -14 -81 -14 -119 -4 -24 7 -44 18 -44 24 0
18 50 61 100 86 74 38 234 89 245 78 5 -5 10 -37 10 -70z m-505 -143 c138 -31
214 -78 226 -141 13 -72 -45 -122 -171 -142 -169 -28 -724 -20 -829 12 -72 22
-106 59 -106 114 0 38 5 50 35 77 46 44 148 77 310 99 17 2 127 3 245 1 154
-2 236 -8 290 -20z m-1119 -169 c30 -13 89 -36 132 -51 69 -24 80 -32 97 -66
23 -44 25 -69 8 -69 -7 0 -42 9 -76 20 -35 11 -82 20 -103 20 -78 0 -121 42
-135 129 -8 50 0 51 77 17z m1649 -3 c-1 -45 -36 -110 -69 -127 -16 -9 -47
-16 -68 -16 -21 0 -71 -10 -111 -21 -40 -12 -75 -19 -79 -15 -4 3 2 27 13 53
18 43 23 47 94 75 41 16 102 39 135 53 77 31 85 31 85 -2z m-990 -159 c173 -3
380 -2 460 3 80 5 147 8 149 7 2 -2 1 -14 -3 -27 -5 -21 -13 -25 -63 -31 -128
-14 -534 -18 -703 -7 -177 12 -190 15 -190 55 0 13 5 16 17 11 10 -3 160 -9
333 -11z"/>
<path d="M785 878 c-143 -14 -127 -28 33 -28 l141 0 16 -30 c20 -38 35 -38 60
0 l20 30 139 0 c82 0 136 4 130 9 -27 26 -358 38 -539 19z"/>
</g>
</svg>
